<svg width="180" height="47" viewBox="0 0 180 47" fill="none" xmlns="http://www.w3.org/2000/svg">
<rect width="180" height="47" fill="#1E1E1E"/>
<rect width="180" height="47" fill="#006400"/>
<path d="M29.232 9.472H30.64C32.3893 9.64267 33.7653 10.4 34.768 11.744C34.8747 11.872 34.9387 11.9467 34.96 11.968C34.9387 11.968 35.2907 11.6267 36.016 10.944C36.9333 10.0693 37.3707 9.65333 37.328 9.696L37.584 9.44H37.84C38.1173 9.44 38.2773 9.504 38.32 9.632C38.3413 9.67467 37.9893 11.1893 37.264 14.176C36.496 17.248 36.112 18.752 36.112 18.688C36.0693 18.816 35.7707 18.88 35.216 18.88H34.544L34.448 18.784C34.3627 18.6987 34.3413 18.5067 34.384 18.208C34.384 18.1867 34.3947 18.08 34.416 17.888C34.6293 16.352 34.5013 14.9867 34.032 13.792C33.52 12.384 32.6027 11.552 31.28 11.296C30.896 11.2107 30.3093 11.2 29.52 11.264C29.456 11.2853 29.4027 11.296 29.36 11.296C27.4613 11.5733 25.7227 12.32 24.144 13.536C22.3947 14.944 21.104 17.0027 20.272 19.712C19.9093 20.8213 19.6533 21.888 19.504 22.912C19.1413 25.0667 19.2693 26.752 19.888 27.968C20.2507 28.6933 20.7733 29.2907 21.456 29.76C22.0533 30.208 22.8213 30.5387 23.76 30.752C25.8293 31.1573 27.568 30.8587 28.976 29.856C29.0613 29.792 29.1467 29.728 29.232 29.664C29.7013 29.2587 30.0213 28.8427 30.192 28.416C30.7253 26.2827 30.992 25.2373 30.992 25.28C30.992 25.2373 30.9493 25.216 30.864 25.216C30.6933 25.1307 29.9787 25.0773 28.72 25.056C27.7813 25.056 27.2693 24.9813 27.184 24.832C27.1627 24.768 27.1947 24.5227 27.28 24.096C27.3867 23.6907 27.4827 23.4453 27.568 23.36L27.664 23.264H28.208C30.9387 23.3707 33.5733 23.3813 36.112 23.296C36.6667 23.2747 36.9867 23.3387 37.072 23.488C37.0933 23.552 37.0613 23.7973 36.976 24.224C36.8693 24.6293 36.7733 24.8747 36.688 24.96L36.592 25.056H36.112C35.3227 25.056 34.8427 25.0987 34.672 25.184C34.6293 25.2053 34.576 25.248 34.512 25.312C34.448 25.376 34.16 26.4747 33.648 28.608C33.1147 30.7413 32.816 31.84 32.752 31.904C32.624 32.032 32.3573 31.936 31.952 31.616C31.504 31.2533 31.1733 30.944 30.96 30.688L30.768 30.432L30.512 30.656C29.872 31.232 29.0613 31.6907 28.08 32.032C27.376 32.3093 26.512 32.512 25.488 32.64C24.784 32.7253 24.0053 32.7253 23.152 32.64C23.088 32.64 23.0347 32.64 22.992 32.64C20.9227 32.3413 19.2373 31.5093 17.936 30.144C16.6987 28.8427 15.952 27.2213 15.696 25.28C15.568 24.4053 15.5787 23.4133 15.728 22.304C16.112 19.552 17.3067 17.0133 19.312 14.688C20.0587 13.8773 20.6773 13.28 21.168 12.896C23.3013 11.1253 25.5947 10.0267 28.048 9.6C28.1547 9.57867 28.5493 9.536 29.232 9.472ZM43.8283 17.888C44.1483 17.824 44.5963 17.8453 45.1723 17.952C46.3243 18.2507 47.0176 18.912 47.2523 19.936C47.3163 20.192 47.3376 20.448 47.3163 20.704C47.2949 21.088 47.1243 21.7067 46.8043 22.56C46.0149 24.6507 45.5029 26.2507 45.2683 27.36C45.0763 28.4907 45.1189 29.3653 45.3963 29.984C45.5883 30.3893 45.8869 30.6453 46.2923 30.752C46.8043 30.9653 47.4443 30.88 48.2123 30.496C48.8309 30.1547 49.3643 29.6213 49.8123 28.896C49.8763 28.8107 50.2923 27.2107 51.0603 24.096C51.8709 20.9173 52.3083 19.2747 52.3723 19.168C52.7136 18.5493 53.2256 18.2293 53.9083 18.208C54.2496 18.208 54.5376 18.304 54.7723 18.496C54.8789 18.5387 54.9749 18.656 55.0603 18.848C55.1669 19.0827 55.1776 19.4133 55.0923 19.84C54.9856 20.3307 54.6229 21.8027 54.0043 24.256C53.2363 27.328 52.8309 28.992 52.7883 29.248C52.7456 29.8027 52.7563 30.176 52.8203 30.368C52.9056 30.6453 53.0869 30.8053 53.3643 30.848C53.6203 30.848 53.8229 30.784 53.9723 30.656C54.4203 30.336 54.8576 29.3867 55.2843 27.808C55.3696 27.4027 55.4656 27.1787 55.5723 27.136C55.6576 27.1147 55.8603 27.104 56.1803 27.104C56.5856 27.104 56.8096 27.1253 56.8523 27.168C56.9803 27.2533 56.9803 27.4987 56.8523 27.904C56.4896 29.248 56.0523 30.272 55.5403 30.976C55.1989 31.488 54.7829 31.8613 54.2923 32.096C53.9509 32.2667 53.5243 32.352 53.0123 32.352C51.7536 32.288 50.8363 31.776 50.2603 30.816L50.1643 30.656L50.0363 30.784C49.6309 31.2107 49.1189 31.584 48.5003 31.904C47.9243 32.1813 47.3483 32.3307 46.7723 32.352C45.4283 32.3947 44.3509 32.0853 43.5403 31.424C42.5803 30.656 42.1643 29.4827 42.2923 27.904C42.3776 26.8587 42.8789 25.0987 43.7963 22.624C43.8176 22.5387 43.8389 22.464 43.8602 22.4C44.1589 21.6533 44.3189 21.2053 44.3403 21.056C44.5963 20.3307 44.6283 19.8293 44.4363 19.552C44.3509 19.424 44.1803 19.36 43.9243 19.36C43.0283 19.4453 42.2709 20.2133 41.6523 21.664C41.5456 21.92 41.4496 22.1973 41.3643 22.496C41.2789 22.752 41.2363 22.8907 41.2363 22.912C41.0016 23.04 40.7456 23.104 40.4683 23.104H39.8603L39.7643 23.008C39.6576 22.9227 39.6683 22.6987 39.7963 22.336C39.9669 21.76 40.1589 21.2693 40.3723 20.864C41.2469 19.136 42.3989 18.144 43.8283 17.888ZM64.3488 12C64.6688 11.9147 64.9674 11.936 65.2448 12.064C65.5648 12.1707 65.7781 12.3733 65.8848 12.672C65.9701 12.928 65.9061 13.4613 65.6927 14.272C65.6288 14.5493 65.5114 15.0293 65.3408 15.712C64.9568 17.312 64.7541 18.1227 64.7328 18.144C64.7328 18.1867 65.2448 18.208 66.2688 18.208H67.8048L67.9008 18.304C68.0288 18.3893 68.0288 18.6667 67.9008 19.136C67.8368 19.456 67.7728 19.68 67.7088 19.808C67.6448 19.9147 67.4314 19.9787 67.0688 20C66.8981 20 66.5034 20 65.8848 20H64.2848L64.2528 20.128C64.2528 20.192 63.8794 21.6747 63.1328 24.576C62.4501 27.3067 62.0768 28.864 62.0128 29.248C61.9274 29.7173 61.9381 30.1013 62.0448 30.4C62.1941 30.7627 62.5461 30.9013 63.1008 30.816C64.0181 30.624 64.8394 29.9733 65.5648 28.864C65.9274 28.3093 66.1621 27.8613 66.2688 27.52C66.3754 27.2853 66.4928 27.1573 66.6208 27.136C66.7061 27.1147 66.8874 27.104 67.1648 27.104C67.5701 27.104 67.8048 27.1253 67.8688 27.168C67.9968 27.296 67.9648 27.552 67.7728 27.936C67.2394 29.088 66.5781 30.048 65.7888 30.816C65.3408 31.264 64.8928 31.5947 64.4448 31.808C64.1034 32 63.7301 32.1493 63.3248 32.256C63.1328 32.2987 62.8341 32.32 62.4288 32.32C62.0234 32.32 61.7034 32.288 61.4688 32.224C60.7008 32.032 60.1034 31.6693 59.6768 31.136C59.3994 30.752 59.2288 30.3573 59.1648 29.952C59.1221 29.7813 59.1008 29.536 59.1008 29.216L59.1328 28.768L60.2208 24.416C60.9461 21.5573 61.3088 20.096 61.3088 20.032C61.3088 20.0107 60.7968 20 59.7728 20C58.7061 20 58.1301 19.9253 58.0448 19.776C58.0021 19.712 58.0234 19.4773 58.1088 19.072C58.2368 18.6453 58.3114 18.4213 58.3328 18.4C58.3968 18.2933 58.6101 18.2293 58.9728 18.208C59.1434 18.208 59.5381 18.208 60.1568 18.208H61.7888L62.3968 15.68C62.8448 13.8667 63.1434 12.8747 63.2928 12.704C63.3354 12.6613 63.3994 12.5973 63.4848 12.512C63.7194 12.2773 64.0074 12.1067 64.3488 12ZM75.3353 10.176C75.3779 10.1547 75.5699 10.144 75.9113 10.144C78.4926 10.2507 81.1806 10.2613 83.9753 10.176C84.6579 10.1547 85.0419 10.2187 85.1273 10.368C85.1699 10.432 85.1379 10.6773 85.0312 11.104C84.9246 11.5093 84.8499 11.7547 84.8073 11.84L84.7113 11.936H83.5913C82.5246 11.9573 81.9059 12.0107 81.7353 12.096C81.6073 12.1387 81.5219 12.2453 81.4793 12.416C81.3726 12.672 81.0526 13.8773 80.5193 16.032L79.5913 19.744H84.0713L88.5513 19.712L89.5113 15.968C90.1299 13.4933 90.4393 12.224 90.4393 12.16C90.4393 12.1387 90.4179 12.1067 90.3753 12.064C90.2899 12.0213 89.7139 11.9787 88.6473 11.936H87.5593L87.4313 11.808C87.3673 11.744 87.3353 11.68 87.3353 11.616L87.6873 10.304C87.7513 10.1973 88.0286 10.1547 88.5193 10.176C88.6046 10.176 88.7753 10.176 89.0312 10.176C90.7806 10.2613 92.9993 10.272 95.6873 10.208C95.9433 10.1867 96.1566 10.176 96.3273 10.176C97.0739 10.1547 97.4899 10.2187 97.5753 10.368C97.6179 10.432 97.5859 10.6773 97.4793 11.104C97.3726 11.5093 97.2979 11.7547 97.2553 11.84L97.1593 11.936H96.0393C94.9726 11.9573 94.3539 12.0107 94.1833 12.096C94.0766 12.1387 94.0126 12.2027 93.9913 12.288C93.8633 12.608 93.1059 15.5413 91.7193 21.088C90.2473 26.976 89.5006 29.9307 89.4793 29.952C89.4579 30.0373 89.5539 30.0907 89.7673 30.112C90.0233 30.1547 90.5246 30.1867 91.2713 30.208C92.0606 30.208 92.4979 30.2827 92.5833 30.432C92.6046 30.496 92.5726 30.7413 92.4873 31.168C92.3806 31.5733 92.2846 31.8187 92.1993 31.904L92.1033 32H91.5913C89.2659 31.8933 86.5779 31.8827 83.5273 31.968C82.8233 31.9893 82.4286 31.9253 82.3433 31.776C82.3219 31.712 82.3539 31.4667 82.4393 31.04C82.5673 30.6133 82.6526 30.368 82.6953 30.304L82.8233 30.208H83.9113C85.1059 30.1867 85.7779 30.1013 85.9272 29.952C85.9913 29.9093 86.3753 28.5013 87.0793 25.728L88.1033 21.568C88.1033 21.5467 86.6099 21.536 83.6233 21.536H79.1433L78.0873 25.76C77.3833 28.5973 77.0419 30.0267 77.0633 30.048C77.1059 30.0907 77.1806 30.112 77.2873 30.112C77.5433 30.176 78.1833 30.208 79.2073 30.208C79.7406 30.208 80.0499 30.2827 80.1353 30.432C80.1566 30.5173 80.1246 30.7627 80.0393 31.168C79.9326 31.5733 79.8366 31.8187 79.7513 31.904L79.6553 32H79.1433C76.8179 31.8933 74.1299 31.8827 71.0793 31.968C70.3753 31.9893 69.9806 31.9253 69.8953 31.776C69.8739 31.712 69.9059 31.4667 69.9913 31.04C70.1193 30.6133 70.2046 30.368 70.2473 30.304L70.3753 30.208H71.4633C72.6579 30.1867 73.3299 30.1013 73.4793 29.952C73.5433 29.9093 74.3113 26.944 75.7833 21.056C77.2553 15.168 77.9913 12.2027 77.9913 12.16C77.9913 12.1387 77.9699 12.1067 77.9273 12.064C77.8419 12.0213 77.2659 11.9787 76.1993 11.936H75.1113L74.9833 11.808C74.9193 11.744 74.8873 11.68 74.8873 11.616L75.2393 10.304C75.2393 10.2827 75.2713 10.24 75.3353 10.176ZM104.937 17.888H106.217C107.753 18.1227 108.734 18.8267 109.161 20C109.289 20.4267 109.31 20.864 109.225 21.312C108.862 22.9547 107.678 24.032 105.673 24.544C104.777 24.8 103.294 24.96 101.225 25.024H100.201L100.137 25.216C100.052 25.5787 99.945 26.1333 99.817 26.88C99.7317 27.5627 99.7317 28.1707 99.817 28.704C99.945 29.3227 100.212 29.824 100.617 30.208C101.108 30.656 101.769 30.8693 102.601 30.848C104.308 30.7413 105.748 30.2507 106.921 29.376C107.326 29.12 107.668 28.8107 107.945 28.448C108.18 28.1707 108.372 28.0853 108.521 28.192C108.585 28.2347 108.702 28.3413 108.873 28.512C109.172 28.832 109.31 29.0347 109.289 29.12C109.268 29.2267 109.033 29.504 108.585 29.952C107.241 31.232 105.513 32 103.401 32.256C102.676 32.384 102.036 32.4053 101.481 32.32C99.4757 32.1067 98.0783 31.0933 97.289 29.28C97.1397 28.96 97.0223 28.6187 96.937 28.256C96.7877 27.7227 96.713 27.0507 96.713 26.24C96.7343 24.9813 97.0117 23.8293 97.545 22.784C97.929 21.9947 98.4517 21.2693 99.113 20.608C99.433 20.3093 99.8277 19.9787 100.297 19.616C101.598 18.656 103.006 18.0907 104.521 17.92C104.628 17.8987 104.766 17.888 104.937 17.888ZM105.801 19.392C105.012 19.2427 104.18 19.392 103.305 19.84C102.046 20.416 101.172 21.5253 100.681 23.168C100.638 23.3387 100.606 23.4347 100.585 23.456C100.585 23.4987 100.937 23.52 101.641 23.52C103.028 23.4987 104.073 23.4027 104.777 23.232C106.228 22.9333 107.081 22.3147 107.337 21.376C107.422 21.0347 107.412 20.736 107.305 20.48C107.113 19.9253 106.612 19.5627 105.801 19.392ZM119.043 17.888C119.065 17.8667 119.257 17.856 119.619 17.856C120.003 17.8987 120.27 17.9307 120.419 17.952C121.123 18.1653 121.699 18.528 122.147 19.04L122.307 19.264L122.531 19.04C123.107 18.5067 123.705 18.3573 124.323 18.592C124.643 18.6987 124.857 18.9013 124.963 19.2C125.049 19.456 124.995 19.9893 124.803 20.8C124.675 21.3547 124.377 22.56 123.907 24.416C123.161 27.3387 122.766 28.9493 122.723 29.248C122.638 29.7173 122.649 30.1013 122.755 30.4C122.883 30.7413 123.129 30.8907 123.491 30.848C123.747 30.8267 124.014 30.624 124.291 30.24C124.59 29.792 124.899 28.96 125.219 27.744C125.305 27.3813 125.401 27.1787 125.507 27.136C125.571 27.1147 125.774 27.104 126.115 27.104C126.521 27.104 126.745 27.1253 126.787 27.168C126.915 27.2533 126.915 27.4987 126.787 27.904C126.233 29.888 125.518 31.2 124.643 31.84C124.302 32.096 123.961 32.256 123.619 32.32C123.171 32.384 122.691 32.352 122.179 32.224C121.219 32.0107 120.537 31.5093 120.131 30.72L120.035 30.496L119.843 30.656C118.158 32.1067 116.494 32.6187 114.851 32.192C114.382 32.064 113.945 31.872 113.539 31.616C112.323 30.7627 111.63 29.4933 111.459 27.808C111.374 27.232 111.385 26.6133 111.491 25.952C111.769 24.16 112.505 22.5173 113.699 21.024C114.105 20.5333 114.553 20.0853 115.043 19.68C116.259 18.6773 117.486 18.0907 118.723 17.92C118.809 17.8987 118.915 17.888 119.043 17.888ZM119.971 19.456C119.545 19.3493 119.193 19.328 118.915 19.392C118.254 19.52 117.614 19.8933 116.995 20.512C116.377 21.1733 115.833 22.3467 115.363 24.032C115.257 24.416 115.139 24.864 115.011 25.376C114.649 26.8267 114.467 27.904 114.467 28.608C114.467 29.2693 114.606 29.792 114.883 30.176C115.289 30.7093 115.854 30.9227 116.579 30.816C117.39 30.7307 118.222 30.2613 119.075 29.408C119.459 29.024 119.747 28.672 119.939 28.352C119.939 28.416 120.227 27.296 120.803 24.992L121.603 21.696L121.571 21.472C121.294 20.4053 120.761 19.7333 119.971 19.456ZM133.197 9.984C134.946 9.856 135.799 9.792 135.757 9.792C135.949 9.792 136.077 9.86667 136.141 10.016C136.162 10.1013 135.394 13.28 133.837 19.552L131.437 29.216C131.415 29.3013 131.405 29.4827 131.405 29.76C131.405 30.3147 131.533 30.656 131.789 30.784C132.343 31.0187 132.823 30.688 133.229 29.792C133.399 29.472 133.613 28.832 133.869 27.872C133.997 27.424 134.103 27.1787 134.189 27.136C134.231 27.1147 134.434 27.104 134.797 27.104C135.202 27.104 135.437 27.1253 135.501 27.168C135.543 27.2107 135.565 27.296 135.565 27.424C135.565 27.7013 135.405 28.2773 135.085 29.152C134.743 29.9627 134.455 30.5493 134.221 30.912C133.73 31.616 133.165 32.064 132.525 32.256C132.375 32.2987 132.141 32.32 131.821 32.32C131.309 32.32 130.882 32.256 130.541 32.128C129.474 31.744 128.823 31.0293 128.589 29.984C128.503 29.4933 128.503 29.0773 128.589 28.736C128.589 28.7573 129.25 26.0587 130.573 20.64C131.938 15.1787 132.578 12.3627 132.493 12.192C132.343 12.0427 131.885 11.9573 131.117 11.936H130.445L130.317 11.808C130.231 11.7227 130.242 11.4453 130.349 10.976C130.477 10.4853 130.583 10.2187 130.669 10.176C130.69 10.176 131.533 10.112 133.197 9.984ZM146.312 17.888H147.592C149.128 18.1227 150.109 18.8267 150.536 20C150.664 20.4267 150.685 20.864 150.6 21.312C150.237 22.9547 149.053 24.032 147.048 24.544C146.152 24.8 144.669 24.96 142.6 25.024H141.576L141.512 25.216C141.427 25.5787 141.32 26.1333 141.192 26.88C141.107 27.5627 141.107 28.1707 141.192 28.704C141.32 29.3227 141.587 29.824 141.992 30.208C142.483 30.656 143.144 30.8693 143.976 30.848C145.683 30.7413 147.123 30.2507 148.296 29.376C148.701 29.12 149.043 28.8107 149.32 28.448C149.555 28.1707 149.747 28.0853 149.896 28.192C149.96 28.2347 150.077 28.3413 150.248 28.512C150.547 28.832 150.685 29.0347 150.664 29.12C150.643 29.2267 150.408 29.504 149.96 29.952C148.616 31.232 146.888 32 144.776 32.256C144.051 32.384 143.411 32.4053 142.856 32.32C140.851 32.1067 139.453 31.0933 138.664 29.28C138.515 28.96 138.397 28.6187 138.312 28.256C138.163 27.7227 138.088 27.0507 138.088 26.24C138.109 24.9813 138.387 23.8293 138.92 22.784C139.304 21.9947 139.827 21.2693 140.488 20.608C140.808 20.3093 141.203 19.9787 141.672 19.616C142.973 18.656 144.381 18.0907 145.896 17.92C146.003 17.8987 146.141 17.888 146.312 17.888ZM147.176 19.392C146.387 19.2427 145.555 19.392 144.68 19.84C143.421 20.416 142.547 21.5253 142.056 23.168C142.013 23.3387 141.981 23.4347 141.96 23.456C141.96 23.4987 142.312 23.52 143.016 23.52C144.403 23.4987 145.448 23.4027 146.152 23.232C147.603 22.9333 148.456 22.3147 148.712 21.376C148.797 21.0347 148.787 20.736 148.68 20.48C148.488 19.9253 147.987 19.5627 147.176 19.392ZM155.682 17.888C156.066 17.8453 156.504 17.856 156.994 17.92C157.997 18.1547 158.712 18.6453 159.138 19.392L159.234 19.552L159.426 19.328C159.874 18.88 160.344 18.5387 160.834 18.304C161.389 18.0267 162.008 17.888 162.69 17.888C163.074 17.888 163.341 17.9093 163.49 17.952C163.874 18.0587 164.248 18.24 164.61 18.496C165.336 19.0933 165.656 19.904 165.57 20.928C165.57 20.992 165.57 21.0453 165.57 21.088C165.442 22.1333 164.994 22.8373 164.226 23.2C163.629 23.4773 163.064 23.4987 162.53 23.264C161.912 22.9653 161.677 22.4213 161.826 21.632C161.912 21.2053 162.114 20.8107 162.434 20.448C162.712 20.192 163.021 20.0107 163.362 19.904L163.586 19.808L163.49 19.712C163 19.3067 162.381 19.2427 161.634 19.52C160.888 19.8187 160.205 20.512 159.586 21.6L159.33 21.984L158.21 26.56C157.421 29.632 156.994 31.232 156.93 31.36C156.632 32 156.13 32.3307 155.426 32.352C155.085 32.352 154.786 32.256 154.53 32.064C154.424 32.0213 154.328 31.904 154.242 31.712C154.136 31.4987 154.125 31.1787 154.21 30.752C154.317 30.2613 154.69 28.7253 155.33 26.144C156.162 22.8373 156.589 21.12 156.61 20.992C156.76 19.9467 156.557 19.4027 156.002 19.36C155.938 19.36 155.874 19.36 155.81 19.36C155.17 19.488 154.605 20.5333 154.114 22.496C154.029 22.752 153.986 22.8907 153.986 22.912C153.752 23.04 153.496 23.104 153.218 23.104H152.61L152.514 23.008C152.429 22.9227 152.429 22.6987 152.514 22.336C152.92 20.8427 153.421 19.7227 154.018 18.976C154.488 18.4 155.042 18.0373 155.682 17.888Z" fill="#F5E5A9"/>
</svg>
